PathFileType	4	(X/Y/Z)	24_2_36_p1_0-142.trc
DataRate	CameraRate	NumFrames	NumMarkers	Units	OrigDataRate	OrigDataStartFrame	OrigNumFrames
60.0	60.0	4	27	m	60.0	0	143
Frame#	Time	RHip			RKnee			RAnkle			RBigToe			RSmallToe			RHeel			LHip			LKnee			LAnkle			LBigToe			LSmallToe			LHeel			Neck			Head			Nose			RShoulder			RElbow			RWrist			RThumb			RIndex			RPinky			LShoulder			LElbow			LWrist			LThumb			LIndex			LPinky			
		X1	Y1	Z1	X2	Y2	Z2	X3	Y3	Z3	X4	Y4	Z4	X5	Y5	Z5	X6	Y6	Z6	X7	Y7	Z7	X8	Y8	Z8	X9	Y9	Z9	X10	Y10	Z10	X11	Y11	Z11	X12	Y12	Z12	X13	Y13	Z13	X14	Y14	Z14	X15	Y15	Z15	X16	Y16	Z16	X17	Y17	Z17	X18	Y18	Z18	X19	Y19	Z19	X20	Y20	Z20	X21	Y21	Z21	X22	Y22	Z22	X23	Y23	Z23	X24	Y24	Z24	X25	Y25	Z25	X26	Y26	Z26	X27	Y27	Z27	
0	0.0	0.44263616092222513	0.5470343067151744	0.864632189291204	0.4477337341389744	0.6147362278318512	1.3050881592522792	0.4282439616070104	0.6689106564888565	1.69866834134038	0.41115376583036956	0.5736948436165895	1.7450445929945646	0.46731336113079275	0.5856242114496665	1.7309183244351714	0.40647318285144585	0.6937192858597102	1.7363968037650745	0.2212600508616984	0.4998363644302308	0.8633410279830662	0.2140218327602195	0.5862243845217744	1.3125859869639107	0.20865927585245286	0.6495589627648138	1.7046066614304904	0.25886493844058445	0.5009482125703727	1.7196787045249384	0.20570926830370256	0.4976311316980419	1.7104136861398236	0.21927943911903516	0.6679113720555204	1.745362852447881	0.3448003991208741	0.4065767867204521	0.2685891898084267	0.3319042597779716	0.31742949156674294	0.0375310854289733	0.33675131181468426	0.25899269571024586	0.15328090593684468	0.4952037247198939	0.43640021668567053	0.3522393862214001	0.5558185194502026	0.46640518805446013	0.6148845841287254	0.4397556707311338	0.35061587003312605	0.8092459858351501	0.3469110022134565	0.3415660101933784	0.8460668086086097	0.3381852252445391	0.3544143325154542	0.8638529703987909	0.33464743671189034	0.35605945500618	0.8761652334223706	0.18320641020402567	0.4261390251016413	0.36833576440933313	0.12962824713200224	0.4139575196069235	0.6304725102982932	0.2861720079083477	0.34046439001728757	0.8009808353312423	0.3686758620019663	0.31955664244500126	0.8271409605162116	0.3917283916673717	0.3016029801075019	0.8464163616085518	0.35518723449814693	0.3655809805896961	0.8730170246421782
1	0.016666666666666666	0.44847744331786926	0.5320185501870929	0.8658590744931643	0.4469111370822086	0.6152857835263126	1.30944625785923	0.432193582096069	0.6709914477907258	1.6991078178193217	0.40821149343262086	0.5616473874356169	1.7335361878919806	0.47086974654451424	0.5510693919875526	1.7085153520138563	0.41316979610942006	0.6793312230644454	1.7272577759771204	0.21534985313717173	0.5152531726076023	0.8713473088426259	0.21396036972549107	0.5863536425533344	1.3126206616123017	0.2085862982872466	0.6498268413441719	1.7045544537525763	0.25478008113659084	0.47625323919410634	1.7080190912440927	0.1990756182455156	0.511663503547695	1.7173421556245316	0.21940164597504966	0.6683222416864087	1.7453892958069093	0.3447911501634136	0.4066726749910204	0.268488307432576	0.3368231895122651	0.30608284737224506	0.03845285035339657	0.33679955572229003	0.25895448560681567	0.15319505210711698	0.49058971829072934	0.44892626822417403	0.35280815396531817	0.5532548181579117	0.45436545148386487	0.6136697870552582	0.43975726638597534	0.35041607320489243	0.8091988225228646	0.3438688348690605	0.3409727824093828	0.8463301517827321	0.3339571373968233	0.3508928165738118	0.8593935961496876	0.33385432879979504	0.3537577489056276	0.8715501623594878	0.18325177758912886	0.4261503008150617	0.36832067961945886	0.13083848889266647	0.42557733824375504	0.6319060622771697	0.2835696232798323	0.349837584667724	0.8028021993991492	0.3739769656127521	0.30817728741633915	0.8213816430529891	0.3918792230350429	0.2858444066100625	0.8393366519410953	0.355844114785927	0.3500584852762907	0.8694241376260856
2	0.03333333333333333	0.44811232267937307	0.5331960176596724	0.8623963058677644	0.44687312662959966	0.6152745979040529	1.3094091735534572	0.4284211785337777	0.6689290684034108	1.6986504459145013	0.408141392919546	0.5617748075249035	1.7333968404783944	0.4707317643463438	0.5508993328213894	1.7083292432886548	0.4160765284407403	0.694503967900705	1.7334362794282558	0.21882676020937453	0.517707895790805	0.8677721735632025	0.21389269082342713	0.586321725500398	1.3126906454807186	0.2086589207244008	0.6497367972696302	1.7044572591686713	0.2548672039739282	0.47582463944199904	1.7077576111967057	0.19466749496358818	0.5090856864281987	1.71647010802953	0.2194507844307957	0.6681837008985647	1.7455799038589743	0.3448272042296207	0.40661514088754375	0.2684415038396655	0.3368144827709461	0.3060919211165942	0.03842777260314751	0.3368008954544127	0.2589589547558752	0.1530812503020014	0.49520916428765477	0.43639003700731593	0.35224549691308327	0.5531432241708499	0.45447575228387393	0.6138572353808983	0.4393037011162789	0.35122954256600886	0.8058968208618933	0.3434392771608625	0.34075929965575635	0.8464321026491949	0.33359083313636145	0.3503083085900521	0.8596127321738544	0.333831524186901	0.35343656622272535	0.871319964143733	0.18461971477658354	0.43866779595224714	0.36858029737445475	0.13095349995944988	0.4257376641003364	0.6319377339786623	0.2868026801862388	0.3396073323154581	0.7971865291497074	0.37360539101327234	0.29224377804281343	0.8212105607366526	0.3912197111463772	0.28489697350057636	0.8382803280776396	0.35614549250809974	0.34843415436936265	0.8651235189943657
3	0.05	0.4482335750000196	0.5330908606076457	0.8621837024254299	0.44690175209442107	0.6152399185960995	1.3092977471802603	0.4283729952466045	0.6688456670365609	1.6985692441267828	0.4081527565458642	0.5614471697637946	1.7332040466291698	0.4705957107719331	0.5503963763821358	1.7079875825011688	0.41329266530711534	0.6806253848951397	1.7272834775974424	0.22108761686100378	0.5032546568651141	0.8647651538394064	0.20995111896507937	0.5843824659299519	1.312373972710665	0.2086100501518726	0.6496693124087413	1.7044741978178792	0.25650005726616004	0.4883925103853126	1.7136096784242192	0.20136622357584671	0.494387105832659	1.708913734564993	0.2193386067926275	0.668291531911405	1.7454688062587487	0.34481577816857206	0.4066394023834435	0.2684628800087478	0.33684820919369224	0.3060928257803906	0.0384393572630573	0.3367776049834893	0.25903877350938687	0.15312591256766556	0.49522869320189544	0.43646366961652394	0.35232675447944395	0.5528827548809432	0.4548100709606167	0.6169618851455272	0.43933066871383775	0.35108467107638014	0.8057552651880673	0.33975219953818725	0.34179733173324706	0.8436620925911724	0.33338759048920746	0.35034914943459516	0.859504533678777	0.3332759059937218	0.35133472664327475	0.8674218273568288	0.18458217671891228	0.43883941254177583	0.3686387504439266	0.13494448145104448	0.4265314319711366	0.6280275066383474	0.2904123652132696	0.3136914515136616	0.7884932113154354	0.36748962897961085	0.30457991207872015	0.8209975597608637	0.39072381208033413	0.2844030259956532	0.8374745949030256	0.3556292301376599	0.3457633516979451	0.8605268803225669
